<mxfile host="app.diagrams.net" modified="2024-07-31T07:17:51.624Z" agent="Mozilla/5.0 (X11; Linux x86_64) AppleWebKit/537.36 (KHTML, like Gecko) Chrome/126.0.0.0 Safari/537.36 Edg/126.0.0.0" version="24.3.0" etag="Gr2mybOp30KzK3zKWBm1" type="github">
  <diagram name="Page-1" id="-_5sNys_OfEx_b5i919k">
    <mxGraphModel>
      <root>
        <mxCell id="0" />
        <mxCell id="1" parent="0" />
      </root>
    </mxGraphModel>
  </diagram>
</mxfile>
